<svg width="243" height="249" viewBox="0 0 273 369" fill="none" xmlns="http://www.w3.org/2000/svg">
<g filter="url(#filter0_d)">
<rect x="7.24036" y="46.0901" width="157.344" height="308.31" transform="rotate(-16.6527 7.24036 46.0901)" fill="#7DA9D1"/>
<rect x="3.0249" y="58.3217" width="155.189" height="305.974" transform="rotate(-16.6527 3.0249 58.3217)" fill="#A7C3E4"/>
<path d="M3.02482 58.3216L7.24032 46.09L10.2523 56.1597L3.02482 58.3216Z" fill="#7DA9D1"/>
<path d="M246.32 296.384L239.388 306.991L237.042 299.166L246.32 296.384Z" fill="#7DA9D1"/>
<line x1="4.64041" y1="52.4406" x2="53.1679" y2="37.9254" stroke="black" stroke-opacity="0.1"/>
<line x1="49.7357" y1="37.733" x2="81.7433" y2="28.1591" stroke="#7E8EA6" stroke-opacity="0.51"/>
<line y1="-0.5" x2="64.2311" y2="-0.5" transform="matrix(0.282641 0.959226 -0.959427 0.281956 180.755 91.7067)" stroke="black" stroke-opacity="0.1"/>
<line y1="-0.5" x2="47.8955" y2="-0.5" transform="matrix(0.293046 0.956098 -0.955752 0.294173 189.967 129.17)" stroke="#1A1719" stroke-opacity="0.06"/>
<line y1="-0.5" x2="61.9048" y2="-0.5" transform="matrix(0.269525 0.962993 -0.963822 0.266546 214.402 208.414)" stroke="black" stroke-opacity="0.04"/>
<line y1="-0.5" x2="75.4586" y2="-0.5" transform="matrix(0.954441 -0.298399 0.296647 0.954987 22.0323 121.914)" stroke="#89B3E6"/>
<line y1="-0.5" x2="70.0583" y2="-0.5" transform="matrix(0.959356 -0.282198 0.282847 0.959165 92.7546 98.8258)" stroke="#7E90B3" stroke-opacity="0.35"/>
<line y1="-0.5" x2="305.976" y2="-0.5" transform="matrix(0.283193 0.959063 -0.959236 0.282605 151.705 13.8492)" stroke="black" stroke-opacity="0.11"/>
<line y1="-0.5" x2="156.271" y2="-0.5" transform="matrix(0.955891 -0.293721 0.292661 0.956216 3.3595 59.4406)" stroke="black" stroke-opacity="0.11"/>
<path d="M51.3953 152.341C56.3959 152.914 61.5492 151.132 66.3523 149.696C69.5819 148.73 73.4355 148.73 76.7932 148.875C78.7642 148.96 81.2592 146.456 83.207 145.873C85.7882 145.101 88.3695 144.329 90.9507 143.557C93.4149 142.82 95.8158 143.139 98.3562 143.035C103.852 142.809 109.4 139.257 114.517 137.727" stroke="black" stroke-width="2" stroke-linecap="round"/>
<path d="M125.205 132.092C128.125 131.851 130.155 132.44 132.934 131.608" stroke="black" stroke-width="2" stroke-linecap="round"/>
<path d="M142.074 126.437C144.828 126.108 147.753 125.957 150.41 125.162C152.37 124.576 154.556 125.821 156.529 125.77C158.24 125.725 159.689 125.434 161.314 124.948C162.681 124.539 164.62 123.174 164.746 125.141" stroke="black" stroke-width="2" stroke-linecap="round"/>
<path d="M90.2634 165.704C94.6783 163.219 98.9794 161.391 103.777 159.799C105.9 159.095 108.266 157.294 110.438 156.893C110.936 156.801 112.158 158.959 112.565 159.304C114.339 160.806 117.828 158.678 119.594 158.15C125.933 156.254 132.271 154.358 138.609 152.462" stroke="black" stroke-width="2" stroke-linecap="round"/>
<path d="M155.101 151.186C157.888 150.352 160.849 149.672 163.271 147.997C165.987 146.119 167.085 145.439 170.593 145.942C173.976 146.427 183.795 143.212 180.565 144.179" stroke="black" stroke-width="2" stroke-linecap="round"/>
<path d="M65.0169 211.043C64.3817 214.104 63.819 215.059 66.7379 214.185C68.3641 213.699 66.1992 213.003 65.5189 212.722" stroke="black" stroke-width="2" stroke-linecap="round"/>
<path d="M80.6575 208.803C83.1696 208.576 84.8017 209.046 86.9423 207.668C88.1982 206.86 90.793 205.987 92.3342 206.055C94.6483 206.158 96.2593 206.679 98.6653 206.329C100.38 206.079 102.04 205.455 103.693 204.96C105.088 204.543 106.493 204.15 107.88 203.708C109.483 203.196 111.224 201.652 112.97 201.711C115.487 201.796 120.028 201.815 121.762 199.556" stroke="black" stroke-width="2" stroke-linecap="round"/>
<path d="M131.389 197.895L141.198 194.961" stroke="black" stroke-width="2" stroke-linecap="round"/>
<path d="M153.769 189.982C157.795 188.777 162.157 186.712 166.369 186.348C167.988 186.209 169.471 186.469 171.272 186.236C173.79 185.911 176.059 185.752 178.473 185.03C179.973 184.582 180.618 184.362 179.553 185.926" stroke="black" stroke-width="2" stroke-linecap="round"/>
<path d="M71.5144 236.527C76.6481 236.019 69.9593 235.826 68.4312 235.62" stroke="black" stroke-width="2" stroke-linecap="round"/>
<path d="M89.9179 232.241C92.9994 231.319 96.2131 230.568 99.1174 229.15C101.868 227.808 104.015 225.973 107.184 227.076C111.98 228.746 115.768 228.31 120.013 225.677" stroke="black" stroke-width="2" stroke-linecap="round"/>
<path d="M129.822 222.743C135.597 220.949 146.851 213.94 152.91 219.494C154.369 220.83 160.111 218.263 161.363 216.83C163.267 214.649 163.713 215.044 166.113 214.326C167.157 214.013 168.675 213.167 169.764 213.369C171.332 213.66 172.79 214.157 174.359 213.688C175.402 213.375 176.921 212.529 178.01 212.731C179.763 213.057 180.492 214.291 182.255 213.763" stroke="black" stroke-width="2" stroke-linecap="round"/>
<path d="M75.9469 262.627C79.9578 264.239 77.7295 262.763 81.0809 264.749" stroke="black" stroke-width="2" stroke-linecap="round"/>
<path d="M95.7175 259.152C100.778 259.708 105.174 257.046 110.158 256.661" stroke="black" stroke-width="2" stroke-linecap="round"/>
<path d="M125.464 253.301C135.035 251.883 143.503 247.364 152.825 245.117C158.105 243.845 163.122 242.037 168.313 240.485" stroke="black" stroke-width="2" stroke-linecap="round"/>
<path d="M182.07 237.589C186.87 236.039 191.623 234.731 196.525 233.265" stroke="black" stroke-width="2" stroke-linecap="round"/>
<path d="M169.157 286.553C171.738 285.781 174.319 285.009 176.9 284.237C178.199 283.848 183.521 281.258 182.907 284.573C182.658 285.917 181.883 284.801 183.377 284.162C184.762 283.569 186.13 282.695 187.56 282.267C189.281 281.752 191.002 281.238 192.723 280.723" stroke="black" stroke-width="2" stroke-linecap="round"/>
<path d="M201.136 280.645C202.181 280.119 205.197 278.06 206.582 278.169C207.592 278.248 209.999 277.955 208.531 279.042" stroke="black" stroke-width="2" stroke-linecap="round"/>
<path d="M181.92 301.02C185.593 298.265 189.667 295.033 194.492 296.04C195.611 296.274 196.72 297.202 197.833 296.869C199.774 296.289 201.732 295.496 203.75 295.235C206.3 294.905 207.522 295.19 209.784 294.514C211.772 293.919 213.199 292.273 215.128 291.696" stroke="black" stroke-width="2" stroke-linecap="round"/>
</g>
<defs>
<filter id="filter0_d" x="0" y="0" width="274.68" height="368.467" filterUnits="userSpaceOnUse" color-interpolation-filters="sRGB">
<feFlood flood-opacity="0" result="BackgroundImageFix"/>
<feColorMatrix in="SourceAlpha" type="matrix" values="0 0 0 0 0 0 0 0 0 0 0 0 0 0 0 0 0 0 127 0" result="hardAlpha"/>
<feOffset dx="17" dy="8"/>
<feGaussianBlur stdDeviation="4.5"/>
<feComposite in2="hardAlpha" operator="out"/>
<feColorMatrix type="matrix" values="0 0 0 0 0 0 0 0 0 0 0 0 0 0 0 0 0 0 0.25 0"/>
<feBlend mode="normal" in2="BackgroundImageFix" result="effect1_dropShadow"/>
<feBlend mode="normal" in="SourceGraphic" in2="effect1_dropShadow" result="shape"/>
</filter>
</defs>
</svg>
